<svg width="50" height="53" viewBox="0 0 50 53" fill="none" xmlns="http://www.w3.org/2000/svg">
<g clip-path="url(#clip0)">
<path d="M24.8056 1.57075e-06C34.7129 7.04635e-07 42.7729 8.52571 42.773 19.0052C42.773 32.0105 26.694 51.1031 26.0094 51.9095C25.3664 52.6671 24.2437 52.6658 23.6019 51.9095C22.9173 51.1031 6.83834 32.0105 6.83833 19.0052C6.83853 8.52571 14.8985 2.43686e-06 24.8056 1.57075e-06ZM24.8056 28.5672C29.7902 28.5672 33.8454 24.2777 33.8454 19.0052C33.8454 13.7326 29.7901 9.44324 24.8056 9.44324C19.8212 9.44325 15.766 13.7327 15.766 19.0053C15.766 24.2778 19.8212 28.5672 24.8056 28.5672Z" fill="#F69333"/>
</g>
<defs>
<clipPath id="clip0">
<rect width="49.6112" height="52.4773" fill="white" transform="matrix(-1 8.74228e-08 8.74228e-08 1 49.6113 0)"/>
</clipPath>
</defs>
</svg>
